<svg id="visual" viewBox="0 0 960 50" width="960" height="50" xmlns="http://www.w3.org/2000/svg" xmlns:xlink="http://www.w3.org/1999/xlink" version="1.1"><path d="M0 21L5.5 22.8C11 24.7 22 28.3 33 27.3C44 26.3 55 20.7 66 18.3C77 16 88 17 99 17.5C110 18 121 18 132.2 18.5C143.3 19 154.7 20 165.8 20.8C177 21.7 188 22.3 199 24.2C210 26 221 29 232 30.7C243 32.3 254 32.7 265 32.8C276 33 287 33 298 32C309 31 320 29 331 25.8C342 22.7 353 18.3 364 16.5C375 14.7 386 15.3 397 18.2C408 21 419 26 430 26.3C441 26.7 452 22.3 463.2 22.8C474.3 23.3 485.7 28.7 496.8 31.2C508 33.7 519 33.3 530 31.7C541 30 552 27 563 24C574 21 585 18 596 19C607 20 618 25 629 26C640 27 651 24 662 23.8C673 23.7 684 26.3 695 28C706 29.7 717 30.3 728 30.8C739 31.3 750 31.7 761 29C772 26.3 783 20.7 794.2 19.7C805.3 18.7 816.7 22.3 827.8 22.5C839 22.7 850 19.3 861 19C872 18.7 883 21.3 894 23.5C905 25.7 916 27.3 927 27.8C938 28.3 949 27.7 954.5 27.3L960 27L960 51L954.5 51C949 51 938 51 927 51C916 51 905 51 894 51C883 51 872 51 861 51C850 51 839 51 827.8 51C816.7 51 805.3 51 794.2 51C783 51 772 51 761 51C750 51 739 51 728 51C717 51 706 51 695 51C684 51 673 51 662 51C651 51 640 51 629 51C618 51 607 51 596 51C585 51 574 51 563 51C552 51 541 51 530 51C519 51 508 51 496.8 51C485.7 51 474.3 51 463.2 51C452 51 441 51 430 51C419 51 408 51 397 51C386 51 375 51 364 51C353 51 342 51 331 51C320 51 309 51 298 51C287 51 276 51 265 51C254 51 243 51 232 51C221 51 210 51 199 51C188 51 177 51 165.8 51C154.7 51 143.3 51 132.2 51C121 51 110 51 99 51C88 51 77 51 66 51C55 51 44 51 33 51C22 51 11 51 5.5 51L0 51Z" fill="#FBF5F3" stroke-linecap="round" stroke-linejoin="miter"></path></svg>