<svg id="visual" viewBox="0 0 960 50" width="960" height="50" xmlns="http://www.w3.org/2000/svg" xmlns:xlink="http://www.w3.org/1999/xlink" version="1.1"><path d="M0 35L8.5 32.7C17 30.3 34 25.7 50.8 23.3C67.7 21 84.3 21 101.2 21.7C118 22.3 135 23.7 151.8 27.8C168.7 32 185.3 39 202.2 38.3C219 37.7 236 29.3 252.8 29.3C269.7 29.3 286.3 37.7 303.2 41.8C320 46 337 46 353.8 45.2C370.7 44.3 387.3 42.7 404.2 40.7C421 38.7 438 36.3 454.8 36.3C471.7 36.3 488.3 38.7 505.2 37.5C522 36.3 539 31.7 555.8 30.8C572.7 30 589.3 33 606.2 33.8C623 34.7 640 33.3 656.8 30.8C673.7 28.3 690.3 24.7 707.2 27.2C724 29.7 741 38.3 757.8 39.8C774.7 41.3 791.3 35.7 808.2 35C825 34.3 842 38.7 858.8 40.3C875.7 42 892.3 41 909.2 39.7C926 38.3 943 36.7 951.5 35.8L960 35L960 51L951.5 51C943 51 926 51 909.2 51C892.3 51 875.7 51 858.8 51C842 51 825 51 808.2 51C791.3 51 774.7 51 757.8 51C741 51 724 51 707.2 51C690.3 51 673.7 51 656.8 51C640 51 623 51 606.2 51C589.3 51 572.7 51 555.8 51C539 51 522 51 505.2 51C488.3 51 471.7 51 454.8 51C438 51 421 51 404.2 51C387.3 51 370.7 51 353.8 51C337 51 320 51 303.2 51C286.3 51 269.7 51 252.8 51C236 51 219 51 202.2 51C185.3 51 168.7 51 151.8 51C135 51 118 51 101.2 51C84.3 51 67.7 51 50.8 51C34 51 17 51 8.5 51L0 51Z" fill="#12EAEA" stroke-linecap="round" stroke-linejoin="miter"></path></svg>