<svg id="visual" viewBox="0 0 960 50" width="960" height="50" xmlns="http://www.w3.org/2000/svg" xmlns:xlink="http://www.w3.org/1999/xlink" version="1.1"><path d="M0 27L5.5 25.2C11 23.3 22 19.7 33 20.7C44 21.7 55 27.3 66 29.7C77 32 88 31 99 30.5C110 30 121 30 132.2 29.5C143.3 29 154.7 28 165.8 27.2C177 26.3 188 25.7 199 23.8C210 22 221 19 232 17.3C243 15.7 254 15.3 265 15.2C276 15 287 15 298 16C309 17 320 19 331 22.2C342 25.3 353 29.7 364 31.5C375 33.3 386 32.7 397 29.8C408 27 419 22 430 21.7C441 21.3 452 25.7 463.2 25.2C474.3 24.7 485.7 19.3 496.8 16.8C508 14.3 519 14.7 530 16.3C541 18 552 21 563 24C574 27 585 30 596 29C607 28 618 23 629 22C640 21 651 24 662 24.2C673 24.3 684 21.7 695 20C706 18.3 717 17.7 728 17.2C739 16.7 750 16.3 761 19C772 21.7 783 27.3 794.2 28.3C805.3 29.3 816.7 25.7 827.8 25.5C839 25.3 850 28.7 861 29C872 29.3 883 26.7 894 24.5C905 22.3 916 20.7 927 20.2C938 19.7 949 20.3 954.5 20.7L960 21L960 0L954.5 0C949 0 938 0 927 0C916 0 905 0 894 0C883 0 872 0 861 0C850 0 839 0 827.8 0C816.7 0 805.3 0 794.2 0C783 0 772 0 761 0C750 0 739 0 728 0C717 0 706 0 695 0C684 0 673 0 662 0C651 0 640 0 629 0C618 0 607 0 596 0C585 0 574 0 563 0C552 0 541 0 530 0C519 0 508 0 496.8 0C485.7 0 474.3 0 463.2 0C452 0 441 0 430 0C419 0 408 0 397 0C386 0 375 0 364 0C353 0 342 0 331 0C320 0 309 0 298 0C287 0 276 0 265 0C254 0 243 0 232 0C221 0 210 0 199 0C188 0 177 0 165.8 0C154.7 0 143.3 0 132.2 0C121 0 110 0 99 0C88 0 77 0 66 0C55 0 44 0 33 0C22 0 11 0 5.5 0L0 0Z" fill="#200D3A" stroke-linecap="round" stroke-linejoin="miter"></path></svg>