<svg id="visual" viewBox="0 0 960 50" width="960" height="50" xmlns="http://www.w3.org/2000/svg" xmlns:xlink="http://www.w3.org/1999/xlink" version="1.1"><path d="M0 43L8.5 39.2C17 35.3 34 27.7 50.8 27.3C67.7 27 84.3 34 101.2 38.3C118 42.7 135 44.3 151.8 43C168.7 41.7 185.3 37.3 202.2 33.2C219 29 236 25 252.8 23.5C269.7 22 286.3 23 303.2 23.7C320 24.3 337 24.7 353.8 28.2C370.7 31.7 387.3 38.3 404.2 39.8C421 41.3 438 37.7 454.8 37.7C471.7 37.7 488.3 41.3 505.2 40.3C522 39.3 539 33.7 555.8 33.5C572.7 33.3 589.3 38.7 606.2 37.3C623 36 640 28 656.8 24.3C673.7 20.7 690.3 21.3 707.2 23.8C724 26.3 741 30.7 757.8 30.3C774.7 30 791.3 25 808.2 25.2C825 25.3 842 30.7 858.8 33.2C875.7 35.7 892.3 35.3 909.2 33.2C926 31 943 27 951.5 25L960 23L960 51L951.5 51C943 51 926 51 909.2 51C892.3 51 875.7 51 858.8 51C842 51 825 51 808.2 51C791.3 51 774.7 51 757.8 51C741 51 724 51 707.2 51C690.3 51 673.7 51 656.8 51C640 51 623 51 606.2 51C589.3 51 572.7 51 555.8 51C539 51 522 51 505.2 51C488.3 51 471.7 51 454.8 51C438 51 421 51 404.2 51C387.3 51 370.7 51 353.8 51C337 51 320 51 303.2 51C286.3 51 269.7 51 252.8 51C236 51 219 51 202.2 51C185.3 51 168.7 51 151.8 51C135 51 118 51 101.2 51C84.3 51 67.7 51 50.8 51C34 51 17 51 8.5 51L0 51Z" fill="#DBFF12" stroke-linecap="round" stroke-linejoin="miter"></path></svg>