<svg width="170" height="42" viewBox="0 0 170 42" fill="none" xmlns="http://www.w3.org/2000/svg">
<path d="M90.105 21.0136V14.473H96.5993C100.016 14.473 102.788 17.263 102.788 20.7062V27.2468H96.2941C92.8774 27.2468 90.105 24.4568 90.105 21.0136Z" fill="#FBF5F3"/>
<path d="M75.9443 5.95356V0H97.233C100.677 0 103.469 2.81135 103.469 6.28017V12.2337H82.18C78.7357 12.2337 75.9443 9.42238 75.9443 5.95356Z" fill="#FBF5F3"/>
<path d="M82.0549 14.3406H88.0151V35.4012C88.0151 38.8422 85.2449 41.6344 81.826 41.6344H75.8659V20.5738C75.8659 17.1328 78.6361 14.3406 82.0549 14.3406Z" fill="#FBF5F3"/>
<path d="M2.38686 28.2712H0V13.7171H10.3625V15.8711H2.38686V19.9463H8.32491V22.042H2.38686V28.2712Z" fill="#FBF5F3"/>
<path d="M11.3159 28.2712H8.7544L14.3237 13.7171H17.0405L22.6292 28.2712H20.0677L18.6317 24.4289H12.7519L11.3159 28.2712ZM15.7015 16.7638L13.5669 22.3525H17.8167L15.7015 16.7638Z" fill="#FBF5F3"/>
<path d="M26.0864 28.2712H23.6996V13.7171H30.472C33.1306 13.7171 34.9741 15.7741 34.9741 18.1222C34.9741 20.0821 33.7322 21.7704 31.9275 22.1585L31.5976 22.2167L34.9353 28.2712H32.2379L29.0749 22.5272H26.0864V28.2712ZM26.0864 15.9099V20.3538H30.3944C31.5393 20.3538 32.5484 19.4417 32.5484 18.1416C32.5484 16.8414 31.5393 15.9099 30.3944 15.9099H26.0864Z" fill="#FBF5F3"/>
<path d="M38.5971 28.2712H36.0356L41.605 13.7171H44.3217L49.9105 28.2712H47.349L45.913 24.4289H40.0331L38.5971 28.2712ZM42.9828 16.7638L40.8482 22.3525H45.0979L42.9828 16.7638Z" fill="#FBF5F3"/>
<path d="M53.3677 28.2712H50.9808V13.7171H53.3677V19.791H60.5088V13.7171H62.8763V28.2712H60.5088V22.0808H53.3677V28.2712Z" fill="#FBF5F3"/>
<path d="M117.481 28.2712H115.094V13.7171H125.457V15.8711H117.481V19.9463H123.419V22.042H117.481V28.2712Z" fill="#FBF5F3"/>
<path d="M126.41 28.2712H123.849L129.418 13.7171H132.135L137.724 28.2712H135.162L133.726 24.4289H127.846L126.41 28.2712ZM130.796 16.7638L128.661 22.3525H132.911L130.796 16.7638Z" fill="#FBF5F3"/>
<path d="M144.837 28.5234C140.704 28.5234 137.347 25.1469 137.347 20.9941C137.347 16.8608 140.704 13.5231 144.837 13.5231C148.99 13.5231 152.347 16.8608 152.347 20.9941C152.347 23.3228 151.202 25.3215 149.495 26.4665H151.784V28.2712H146.739C146.137 28.4264 145.497 28.5234 144.837 28.5234ZM144.837 26.1172C147.69 26.1172 149.96 23.8467 149.96 20.9941C149.96 18.1998 147.69 15.9099 144.837 15.9099C142.004 15.9099 139.753 18.1998 139.753 20.9941C139.753 23.8467 142.004 26.1172 144.837 26.1172Z" fill="#FBF5F3"/>
<path d="M156.015 28.2712H153.628V13.7171H156.015V28.2712Z" fill="#FBF5F3"/>
<path d="M160.332 28.2712H157.945V13.7171H164.718C167.376 13.7171 169.22 15.7741 169.22 18.1222C169.22 20.0821 167.978 21.7704 166.173 22.1585L165.843 22.2167L169.181 28.2712H166.484L163.321 22.5272H160.332V28.2712ZM160.332 15.9099V20.3538H164.64C165.785 20.3538 166.794 19.4417 166.794 18.1416C166.794 16.8414 165.785 15.9099 164.64 15.9099H160.332Z" fill="#FBF5F3"/>
</svg>
